<svg id="visual" viewBox="0 0 1000 366" width="1000" height="366" xmlns="http://www.w3.org/2000/svg" xmlns:xlink="http://www.w3.org/1999/xlink" version="1.1"><rect x="0" y="0" width="1000" height="366" fill="#FFFFFF"></rect><defs><linearGradient id="grad1_0" x1="63.4%" y1="0%" x2="100%" y2="100%"><stop offset="-4.644808743169396%" stop-color="#1890ff" stop-opacity="1"></stop><stop offset="104.64480874316939%" stop-color="#1890ff" stop-opacity="1"></stop></linearGradient></defs><defs><linearGradient id="grad1_1" x1="63.4%" y1="0%" x2="100%" y2="100%"><stop offset="-4.644808743169396%" stop-color="#1890ff" stop-opacity="1"></stop><stop offset="104.64480874316939%" stop-color="#8bb3ff" stop-opacity="1"></stop></linearGradient></defs><defs><linearGradient id="grad1_2" x1="63.4%" y1="0%" x2="100%" y2="100%"><stop offset="-4.644808743169396%" stop-color="#c9d8ff" stop-opacity="1"></stop><stop offset="104.64480874316939%" stop-color="#8bb3ff" stop-opacity="1"></stop></linearGradient></defs><defs><linearGradient id="grad1_3" x1="63.4%" y1="0%" x2="100%" y2="100%"><stop offset="-4.644808743169396%" stop-color="#c9d8ff" stop-opacity="1"></stop><stop offset="104.64480874316939%" stop-color="#ffffff" stop-opacity="1"></stop></linearGradient></defs><defs><linearGradient id="grad2_0" x1="0%" y1="0%" x2="36.6%" y2="100%"><stop offset="-4.644808743169396%" stop-color="#1890ff" stop-opacity="1"></stop><stop offset="104.64480874316939%" stop-color="#1890ff" stop-opacity="1"></stop></linearGradient></defs><defs><linearGradient id="grad2_1" x1="0%" y1="0%" x2="36.6%" y2="100%"><stop offset="-4.644808743169396%" stop-color="#8bb3ff" stop-opacity="1"></stop><stop offset="104.64480874316939%" stop-color="#1890ff" stop-opacity="1"></stop></linearGradient></defs><defs><linearGradient id="grad2_2" x1="0%" y1="0%" x2="36.6%" y2="100%"><stop offset="-4.644808743169396%" stop-color="#8bb3ff" stop-opacity="1"></stop><stop offset="104.64480874316939%" stop-color="#c9d8ff" stop-opacity="1"></stop></linearGradient></defs><defs><linearGradient id="grad2_3" x1="0%" y1="0%" x2="36.6%" y2="100%"><stop offset="-4.644808743169396%" stop-color="#ffffff" stop-opacity="1"></stop><stop offset="104.64480874316939%" stop-color="#c9d8ff" stop-opacity="1"></stop></linearGradient></defs><g transform="translate(1000, 0)"><path d="M0 274.5C-48.5 267.6 -96.9 260.7 -137.2 237.7C-177.6 214.8 -209.7 175.8 -231.2 133.5C-252.7 91.2 -263.6 45.6 -274.5 0L0 0Z" fill="#e5ebff"></path><path d="M0 205.9C-36.4 200.7 -72.7 195.5 -102.9 178.3C-133.2 161.1 -157.3 131.8 -173.4 100.1C-189.6 68.4 -197.7 34.2 -205.9 0L0 0Z" fill="#acc5ff"></path><path d="M0 137.3C-24.2 133.8 -48.5 130.3 -68.6 118.9C-88.8 107.4 -104.9 87.9 -115.6 66.8C-126.4 45.6 -131.8 22.8 -137.2 0L0 0Z" fill="#63a1ff"></path><path d="M0 68.6C-12.1 66.9 -24.2 65.2 -34.3 59.4C-44.4 53.7 -52.4 43.9 -57.8 33.4C-63.2 22.8 -65.9 11.4 -68.6 0L0 0Z" fill="#1890ff"></path></g><g transform="translate(0, 366)"><path d="M0 -274.5C47.8 -267.2 95.6 -259.9 137.2 -237.7C178.9 -215.6 214.6 -178.6 236.4 -136.5C258.3 -94.4 266.4 -47.2 274.5 0L0 0Z" fill="#e5ebff"></path><path d="M0 -205.9C35.8 -200.4 71.7 -194.9 102.9 -178.3C134.2 -161.7 160.9 -133.9 177.3 -102.4C193.7 -70.8 199.8 -35.4 205.9 0L0 0Z" fill="#acc5ff"></path><path d="M0 -137.2C23.9 -133.6 47.8 -129.9 68.6 -118.9C89.5 -107.8 107.3 -89.3 118.2 -68.3C129.1 -47.2 133.2 -23.6 137.3 0L0 0Z" fill="#63a1ff"></path><path d="M0 -68.6C11.9 -66.8 23.9 -65 34.3 -59.4C44.7 -53.9 53.6 -44.6 59.1 -34.1C64.6 -23.6 66.6 -11.8 68.6 0L0 0Z" fill="#1890ff"></path></g></svg>