<svg id="visual" viewBox="0 0 1000 366" width="1000" height="366" xmlns="http://www.w3.org/2000/svg" xmlns:xlink="http://www.w3.org/1999/xlink" version="1.1"><rect x="0" y="0" width="1000" height="366" fill="#FFFFFF"></rect><defs><linearGradient id="grad1_0" x1="63.4%" y1="0%" x2="100%" y2="100%"><stop offset="-4.644808743169396%" stop-color="#1890ff" stop-opacity="1"></stop><stop offset="104.64480874316939%" stop-color="#1890ff" stop-opacity="1"></stop></linearGradient></defs><defs><linearGradient id="grad1_1" x1="63.4%" y1="0%" x2="100%" y2="100%"><stop offset="-4.644808743169396%" stop-color="#1890ff" stop-opacity="1"></stop><stop offset="104.64480874316939%" stop-color="#acc5ff" stop-opacity="1"></stop></linearGradient></defs><defs><linearGradient id="grad1_2" x1="63.4%" y1="0%" x2="100%" y2="100%"><stop offset="-4.644808743169396%" stop-color="#ffffff" stop-opacity="1"></stop><stop offset="104.64480874316939%" stop-color="#acc5ff" stop-opacity="1"></stop></linearGradient></defs><defs><linearGradient id="grad2_0" x1="0%" y1="0%" x2="36.6%" y2="100%"><stop offset="-4.644808743169396%" stop-color="#1890ff" stop-opacity="1"></stop><stop offset="104.64480874316939%" stop-color="#1890ff" stop-opacity="1"></stop></linearGradient></defs><defs><linearGradient id="grad2_1" x1="0%" y1="0%" x2="36.6%" y2="100%"><stop offset="-4.644808743169396%" stop-color="#acc5ff" stop-opacity="1"></stop><stop offset="104.64480874316939%" stop-color="#1890ff" stop-opacity="1"></stop></linearGradient></defs><defs><linearGradient id="grad2_2" x1="0%" y1="0%" x2="36.6%" y2="100%"><stop offset="-4.644808743169396%" stop-color="#acc5ff" stop-opacity="1"></stop><stop offset="104.64480874316939%" stop-color="#ffffff" stop-opacity="1"></stop></linearGradient></defs><g transform="translate(1000, 0)"><path d="M0 256.2C-42.5 246 -85 235.7 -124.5 215.6C-164 195.6 -200.4 165.7 -221.9 128.1C-243.3 90.5 -249.8 45.3 -256.2 0L0 0Z" fill="#d7e2ff"></path><path d="M0 170.8C-28.3 164 -56.7 157.1 -83 143.8C-109.3 130.4 -133.6 110.5 -147.9 85.4C-162.2 60.3 -166.5 30.2 -170.8 0L0 0Z" fill="#78aaff"></path><path d="M0 85.4C-14.2 82 -28.3 78.6 -41.5 71.9C-54.7 65.2 -66.8 55.2 -74 42.7C-81.1 30.2 -83.3 15.1 -85.4 0L0 0Z" fill="#1890ff"></path></g><g transform="translate(0, 366)"><path d="M0 -256.2C45.4 -249.8 90.8 -243.5 128.1 -221.9C165.4 -200.3 194.8 -163.5 214.8 -124C234.8 -84.5 245.5 -42.2 256.2 0L0 0Z" fill="#d7e2ff"></path><path d="M0 -170.8C30.3 -166.6 60.5 -162.3 85.4 -147.9C110.3 -133.5 129.8 -109 143.2 -82.7C156.5 -56.3 163.7 -28.2 170.8 0L0 0Z" fill="#78aaff"></path><path d="M0 -85.4C15.1 -83.3 30.3 -81.2 42.7 -74C55.1 -66.8 64.9 -54.5 71.6 -41.3C78.3 -28.2 81.8 -14.1 85.4 0L0 0Z" fill="#1890ff"></path></g></svg>